<?xml version="1.0" encoding="UTF-8"?>
<svg id="Layer_47" data-name="Layer 47" xmlns="http://www.w3.org/2000/svg" xmlns:xlink="http://www.w3.org/1999/xlink" viewBox="0 0 300 300">
  <defs>
    <style>
      .cls-1 {
        fill: url(#linear-gradient-2);
      }

      .cls-2 {
        fill: #fff;
      }

      .cls-3 {
        fill: url(#linear-gradient-3);
      }

      .cls-4 {
        fill: none;
        stroke: #fff;
        stroke-linecap: round;
        stroke-miterlimit: 10;
        stroke-width: 5px;
      }

      .cls-5 {
        fill: url(#linear-gradient);
      }
    </style>
    <linearGradient id="linear-gradient" x1="58.89" y1="152.7" x2="241.2" y2="152.7" gradientUnits="userSpaceOnUse">
      <stop offset="0" stop-color="#d5c5e1"/>
      <stop offset=".33" stop-color="#e9deee"/>
      <stop offset=".75" stop-color="#d9e4f4"/>
      <stop offset="1" stop-color="#c3d6ee"/>
    </linearGradient>
    <linearGradient id="linear-gradient-2" x1="58.8" y1="81.39" x2="104.26" y2="81.39" xlink:href="#linear-gradient"/>
    <linearGradient id="linear-gradient-3" x1="195.74" y1="82.27" x2="241.2" y2="82.27" xlink:href="#linear-gradient"/>
  </defs>
  <g>
    <circle class="cls-5" cx="150.05" cy="152.7" r="91.15"/>
    <path class="cls-1" d="M63.68,56.24c-4.95,1.33-6.15,16.43-3.54,28.29,2.28,10.36,7.52,17.81,11.15,22.1,10.99-10.91,21.98-21.83,32.97-32.74-7.64.35-17.48-.57-26.23-6.34-8.38-5.53-10.84-12.26-14.34-11.31Z"/>
    <path class="cls-3" d="M236.32,57.12c4.95,1.33,6.15,16.43,3.54,28.29-2.28,10.36-7.52,17.81-11.15,22.1-10.99-10.91-21.98-21.83-32.97-32.74,7.64.35,17.48-.57,26.23-6.34,8.38-5.53,10.84-12.26,14.34-11.31Z"/>
  </g>
  <ellipse class="cls-2" cx="117.13" cy="141.97" rx="8.86" ry="15.47"/>
  <ellipse class="cls-2" cx="183.77" cy="141.97" rx="8.86" ry="15.47"/>
  <path class="cls-4" d="M197.42,184.19c-4.75,3.68-21.93,16.08-46.82,15.31-22.15-.68-37.28-11.38-42.33-15.31"/>
</svg>